<svg width="24" height="25" viewBox="0 0 24 25" fill="none" xmlns="http://www.w3.org/2000/svg">
<path d="M7.89975 12.6703C7.89975 10.4952 9.66201 8.73153 11.8364 8.73153C14.0109 8.73153 15.7741 10.4952 15.7741 12.6703C15.7741 14.8454 14.0109 16.6091 11.8364 16.6091C9.66201 16.6091 7.89975 14.8454 7.89975 12.6703ZM5.77114 12.6703C5.77114 16.0211 8.48657 18.7374 11.8364 18.7374C15.1863 18.7374 17.9018 16.0211 17.9018 12.6703C17.9018 9.31946 15.1863 6.60325 11.8364 6.60325C8.48657 6.60325 5.77114 9.31946 5.77114 12.6703ZM16.7244 6.36268C16.7243 6.64311 16.8073 6.91727 16.963 7.15049C17.1187 7.38372 17.34 7.56554 17.5989 7.67295C17.8579 7.78037 18.1429 7.80856 18.4178 7.75396C18.6928 7.69937 18.9454 7.56443 19.1437 7.36622C19.3421 7.16801 19.4772 6.91543 19.532 6.64042C19.5868 6.3654 19.5588 6.08031 19.4516 5.82119C19.3444 5.56207 19.1629 5.34056 18.9298 5.18467C18.6968 5.02878 18.4228 4.94552 18.1424 4.94541H18.1419C17.7661 4.94558 17.4057 5.09494 17.14 5.36068C16.8742 5.62641 16.7248 5.9868 16.7244 6.36268V6.36268ZM7.06441 22.2877C5.91279 22.2353 5.28685 22.0434 4.87088 21.8813C4.3194 21.6665 3.92592 21.4108 3.51222 20.9975C3.09852 20.5842 2.84243 20.191 2.62868 19.6394C2.46653 19.2235 2.2747 18.5972 2.22235 17.4452C2.16509 16.1998 2.15365 15.8257 2.15365 12.6704C2.15365 9.51512 2.16603 9.14204 2.22235 7.89556C2.2748 6.74361 2.46804 6.11853 2.62868 5.7014C2.84338 5.14976 3.09908 4.75617 3.51222 4.34235C3.92536 3.92853 4.31846 3.67237 4.87088 3.45856C5.28666 3.29636 5.91279 3.10447 7.06441 3.05211C8.30949 2.99483 8.6835 2.98339 11.8364 2.98339C14.9894 2.98339 15.3638 2.99577 16.6099 3.05211C17.7615 3.10457 18.3864 3.29787 18.8034 3.45856C19.3549 3.67237 19.7484 3.92909 20.1621 4.34235C20.5758 4.7556 20.8309 5.14976 21.0456 5.7014C21.2078 6.1173 21.3996 6.74361 21.452 7.89556C21.5092 9.14204 21.5207 9.51512 21.5207 12.6704C21.5207 15.8257 21.5092 16.1988 21.452 17.4452C21.3995 18.5972 21.2067 19.2233 21.0456 19.6394C20.8309 20.191 20.5752 20.5846 20.1621 20.9975C19.749 21.4104 19.3549 21.6665 18.8034 21.8813C18.3877 22.0435 17.7615 22.2354 16.6099 22.2877C15.3648 22.345 14.9908 22.3565 11.8364 22.3565C8.68208 22.3565 8.30911 22.345 7.06441 22.2877V22.2877ZM6.96661 0.926473C5.70915 0.983754 4.8499 1.1832 4.09951 1.47527C3.32238 1.7769 2.6645 2.18155 2.00709 2.83811C1.34968 3.49467 0.946187 4.15377 0.644651 4.93113C0.352659 5.68221 0.153273 6.54124 0.0960084 7.79906C0.037799 9.05886 0.0244751 9.46162 0.0244751 12.6703C0.0244751 15.879 0.037799 16.2817 0.0960084 17.5415C0.153273 18.7995 0.352659 19.6584 0.644651 20.4095C0.946187 21.1864 1.34978 21.8462 2.00709 22.5025C2.6644 23.1588 3.32238 23.5629 4.09951 23.8653C4.85132 24.1574 5.70915 24.3569 6.96661 24.4141C8.22671 24.4714 8.62869 24.4857 11.8364 24.4857C15.0442 24.4857 15.4468 24.4724 16.7063 24.4141C17.9638 24.3569 18.8225 24.1574 19.5734 23.8653C20.35 23.5629 21.0084 23.1591 21.6658 22.5025C22.3232 21.8459 22.7259 21.1864 23.0282 20.4095C23.3202 19.6584 23.5206 18.7994 23.5769 17.5415C23.6342 16.2808 23.6475 15.879 23.6475 12.6703C23.6475 9.46162 23.6342 9.05886 23.5769 7.79906C23.5196 6.54114 23.3202 5.68174 23.0282 4.93113C22.7259 4.15425 22.3222 3.4957 21.6658 2.83811C21.0094 2.18051 20.35 1.7769 19.5743 1.47527C18.8225 1.1832 17.9637 0.982809 16.7072 0.926473C15.4478 0.869192 15.0451 0.854919 11.8374 0.854919C8.62964 0.854919 8.22671 0.868247 6.96661 0.926473Z" fill="white"/>
<path d="M7.89975 12.6703C7.89975 10.4952 9.66201 8.73153 11.8364 8.73153C14.0109 8.73153 15.7741 10.4952 15.7741 12.6703C15.7741 14.8454 14.0109 16.6091 11.8364 16.6091C9.66201 16.6091 7.89975 14.8454 7.89975 12.6703ZM5.77114 12.6703C5.77114 16.0211 8.48657 18.7374 11.8364 18.7374C15.1863 18.7374 17.9018 16.0211 17.9018 12.6703C17.9018 9.31946 15.1863 6.60325 11.8364 6.60325C8.48657 6.60325 5.77114 9.31946 5.77114 12.6703ZM16.7244 6.36268C16.7243 6.64311 16.8073 6.91727 16.963 7.15049C17.1187 7.38372 17.34 7.56554 17.5989 7.67295C17.8579 7.78037 18.1429 7.80856 18.4178 7.75396C18.6928 7.69937 18.9454 7.56443 19.1437 7.36622C19.3421 7.16801 19.4772 6.91543 19.532 6.64042C19.5868 6.3654 19.5588 6.08031 19.4516 5.82119C19.3444 5.56207 19.1629 5.34056 18.9298 5.18467C18.6968 5.02878 18.4228 4.94552 18.1424 4.94541H18.1419C17.7661 4.94558 17.4057 5.09494 17.14 5.36068C16.8742 5.62641 16.7248 5.9868 16.7244 6.36268V6.36268ZM7.06441 22.2877C5.91279 22.2353 5.28685 22.0434 4.87088 21.8813C4.3194 21.6665 3.92592 21.4108 3.51222 20.9975C3.09852 20.5842 2.84243 20.191 2.62868 19.6394C2.46653 19.2235 2.2747 18.5972 2.22235 17.4452C2.16509 16.1998 2.15365 15.8257 2.15365 12.6704C2.15365 9.51512 2.16603 9.14204 2.22235 7.89556C2.2748 6.74361 2.46804 6.11853 2.62868 5.7014C2.84338 5.14976 3.09908 4.75617 3.51222 4.34235C3.92536 3.92853 4.31846 3.67237 4.87088 3.45856C5.28666 3.29636 5.91279 3.10447 7.06441 3.05211C8.30949 2.99483 8.6835 2.98339 11.8364 2.98339C14.9894 2.98339 15.3638 2.99577 16.6099 3.05211C17.7615 3.10457 18.3864 3.29787 18.8034 3.45856C19.3549 3.67237 19.7484 3.92909 20.1621 4.34235C20.5758 4.7556 20.8309 5.14976 21.0456 5.7014C21.2078 6.1173 21.3996 6.74361 21.452 7.89556C21.5092 9.14204 21.5207 9.51512 21.5207 12.6704C21.5207 15.8257 21.5092 16.1988 21.452 17.4452C21.3995 18.5972 21.2067 19.2233 21.0456 19.6394C20.8309 20.191 20.5752 20.5846 20.1621 20.9975C19.749 21.4104 19.3549 21.6665 18.8034 21.8813C18.3877 22.0435 17.7615 22.2354 16.6099 22.2877C15.3648 22.345 14.9908 22.3565 11.8364 22.3565C8.68208 22.3565 8.30911 22.345 7.06441 22.2877V22.2877ZM6.96661 0.926473C5.70915 0.983754 4.8499 1.1832 4.09951 1.47527C3.32238 1.7769 2.6645 2.18155 2.00709 2.83811C1.34968 3.49467 0.946187 4.15377 0.644651 4.93113C0.352659 5.68221 0.153273 6.54124 0.0960084 7.79906C0.037799 9.05886 0.0244751 9.46162 0.0244751 12.6703C0.0244751 15.879 0.037799 16.2817 0.0960084 17.5415C0.153273 18.7995 0.352659 19.6584 0.644651 20.4095C0.946187 21.1864 1.34978 21.8462 2.00709 22.5025C2.6644 23.1588 3.32238 23.5629 4.09951 23.8653C4.85132 24.1574 5.70915 24.3569 6.96661 24.4141C8.22671 24.4714 8.62869 24.4857 11.8364 24.4857C15.0442 24.4857 15.4468 24.4724 16.7063 24.4141C17.9638 24.3569 18.8225 24.1574 19.5734 23.8653C20.35 23.5629 21.0084 23.1591 21.6658 22.5025C22.3232 21.8459 22.7259 21.1864 23.0282 20.4095C23.3202 19.6584 23.5206 18.7994 23.5769 17.5415C23.6342 16.2808 23.6475 15.879 23.6475 12.6703C23.6475 9.46162 23.6342 9.05886 23.5769 7.79906C23.5196 6.54114 23.3202 5.68174 23.0282 4.93113C22.7259 4.15425 22.3222 3.4957 21.6658 2.83811C21.0094 2.18051 20.35 1.7769 19.5743 1.47527C18.8225 1.1832 17.9637 0.982809 16.7072 0.926473C15.4478 0.869192 15.0451 0.854919 11.8374 0.854919C8.62964 0.854919 8.22671 0.868247 6.96661 0.926473Z" fill="white"/>
</svg>
