<svg width="48" height="48" viewBox="0 0 48 48" fill="none" xmlns="http://www.w3.org/2000/svg">
<path d="M12.5854 34.5407L14.2794 28.2422C12.9133 25.7886 12.4792 22.9255 13.0569 20.1782C13.6347 17.4309 15.1854 14.9837 17.4245 13.2858C19.6636 11.5878 22.441 10.7529 25.2469 10.9343C28.0529 11.1157 30.6992 12.3012 32.7003 14.2733C34.7014 16.2454 35.923 18.8718 36.141 21.6705C36.359 24.4692 35.5587 27.2525 33.887 29.5097C32.2154 31.7669 29.7844 33.3466 27.0403 33.9589C24.2961 34.5711 21.4229 34.1749 18.9478 32.8429L12.5854 34.5407ZM19.2545 30.4859L19.648 30.719C21.4408 31.7798 23.5347 32.2188 25.6035 31.9676C27.6723 31.7163 29.5998 30.7889 31.0855 29.3298C32.5712 27.8707 33.5317 25.962 33.8174 23.901C34.103 21.8401 33.6978 19.7427 32.6648 17.9357C31.6317 16.1286 30.029 14.7135 28.1063 13.9109C26.1836 13.1082 24.0489 12.963 22.0349 13.498C20.0209 14.033 18.2408 15.2181 16.9719 16.8685C15.703 18.519 15.0166 20.5422 15.0197 22.6228C15.018 24.3479 15.4959 26.0397 16.4002 27.5098L16.6469 27.9159L15.6999 31.4314L19.2545 30.4859Z" fill="white"/>
<path fill-rule="evenodd" clip-rule="evenodd" d="M28.8045 24.2402C28.5739 24.0544 28.3038 23.9237 28.0148 23.8579C27.7259 23.7922 27.4258 23.7931 27.1372 23.8607C26.7038 24.0404 26.4237 24.7196 26.1436 25.0591C26.0845 25.1405 25.9977 25.1976 25.8995 25.2197C25.8012 25.2417 25.6983 25.2273 25.61 25.179C24.023 24.5584 22.6927 23.4204 21.8353 21.9498C21.7622 21.858 21.7276 21.7415 21.7388 21.6248C21.75 21.5081 21.8061 21.4002 21.8953 21.324C22.2078 21.0152 22.4371 20.6328 22.5623 20.2121C22.59 19.748 22.4835 19.2858 22.2555 18.8805C22.0792 18.3122 21.7436 17.8063 21.2885 17.4224C21.0537 17.3169 20.7934 17.2816 20.539 17.3206C20.2846 17.3596 20.0469 17.4712 19.8546 17.6421C19.5208 17.9296 19.2558 18.2882 19.0793 18.6915C18.9027 19.0948 18.8189 19.5325 18.8342 19.9724C18.8353 20.2194 18.8666 20.4654 18.9276 20.7048C19.0825 21.28 19.3206 21.8295 19.6345 22.336C19.861 22.724 20.1081 23.0996 20.3748 23.4612C21.2415 24.649 22.3309 25.6575 23.5826 26.4307C24.2107 26.8236 24.8821 27.1431 25.5834 27.3828C26.3118 27.7124 27.1161 27.839 27.9109 27.749C28.3637 27.6805 28.7927 27.5021 29.1602 27.2292C29.5277 26.9564 29.8223 26.5976 30.0183 26.1843C30.1334 25.9347 30.1684 25.6556 30.1183 25.3854C29.9983 24.8327 29.258 24.5065 28.8045 24.2402Z" fill="white"/>
</svg>
